<svg xmlns="http://www.w3.org/2000/svg" width="58" height="16" viewBox="0 0 58 16">
  <g fill="#50E3C2" fill-rule="evenodd">
    <path d="M14.727 1.768v12.35c0 .672-.494 1.285-1.178 1.353-.787.077-1.452-.525-1.452-1.278V4.12l-4.176 5.09c-.294.323-.82.323-1.115 0L2.63 4.12v9.997c0 .672-.495 1.285-1.179 1.353C.664 15.548 0 14.946 0 14.193V1.768C0 .822.785.054 1.753.054c.552 0 1.071.254 1.403.686l4.208 5.484L11.57.74c.332-.432.85-.686 1.403-.686.969 0 1.753.768 1.753 1.714M30.397 1.285v7.97c0 3.408-2.016 6.169-6.048 6.169-4.033 0-6.049-2.761-6.049-6.17V1.285C18.3.576 18.864 0 19.56 0c.696 0 1.26.576 1.26 1.285v7.97c0 1.989 1.008 3.598 3.529 3.598 2.52 0 3.528-1.61 3.528-3.599V1.285c0-.709.564-1.285 1.26-1.285.696 0 1.26.576 1.26 1.285M44.245 11.02c0 2.596-2.354 4.404-5.726 4.404-1.737 0-3.387-.489-4.771-1.416-.296-.203-.493-.519-.54-.866-.041-.346.073-.692.311-.952.25-.27.607-.422.986-.422.264 0 .513.076.716.214 1.021.702 2.21 1.09 3.345 1.09 1.717 0 2.785-.719 2.785-1.874 0-1.187-.985-1.589-2.344-2.144l-2.25-.896c-2.2-.856-3.32-2.195-3.32-3.977 0-2.383 2.308-4.18 5.362-4.18 1.416 0 2.838.417 4.01 1.186.275.183.461.468.508.789.046.326-.057.657-.28.906-.4.443-1.079.54-1.592.224-.82-.514-1.686-.758-2.646-.758-1.524 0-2.468.652-2.468 1.7 0 1.13 1.177 1.564 2.427 2.027l2.163.85c1.545.606 3.324 1.615 3.324 4.094M55.756 0c.727 0 1.315.575 1.315 1.285s-.588 1.286-1.315 1.286H52.6v11.567c0 .666-.517 1.213-1.18 1.279l-.134.007c-.727 0-1.315-.576-1.315-1.286L49.97 2.57h-3.155c-.681 0-1.24-.505-1.308-1.153l-.007-.132C45.5.575 46.089 0 46.815 0h8.941z"></path>
  </g>
</svg>
